<?xml version="1.0" encoding="utf-8"?>
<!-- Generator: Adobe Illustrator 19.0.1, SVG Export Plug-In . SVG Version: 6.00 Build 0)  -->
<svg version="1.1" id="Layer_1" xmlns="http://www.w3.org/2000/svg" xmlns:xlink="http://www.w3.org/1999/xlink" x="0px" y="0px"
	 viewBox="0 0 100 50" style="enable-background:new 0 0 100 50;" xml:space="preserve">
<style type="text/css">
	.st0{fill:url(#SVGID_1_);}
	.st1{fill:#FFFFFF;}
	.st2{fill:#99CC67;}
</style>
<linearGradient id="SVGID_1_" gradientUnits="userSpaceOnUse" x1="4.3151" y1="51.3762" x2="95.6848" y2="-1.3761">
	<stop  offset="0" style="stop-color:#046799"/>
	<stop  offset="0.362" style="stop-color:#046799;stop-opacity:0.6"/>
	<stop  offset="1" style="stop-color:#046799"/>
</linearGradient>
<path class="st0" d="M100,41.7c0,4.6-3.7,8.3-8.3,8.3H8.3C3.7,50,0,46.3,0,41.7V8.3C0,3.7,3.7,0,8.3,0h83.3c4.6,0,8.3,3.7,8.3,8.3
	V41.7z"/>
<g>
	<path class="st1" d="M80,34.3h-7.1v-4l10-16.3h5l-9.8,16.2h2 M88.9,30.2"/>
</g>
<polygon class="st2" points="93.7,30 89.3,30 89.3,25.7 85,25.7 85,30 80.7,30 80.7,34.4 85,34.4 85,38.7 89.3,38.7 89.3,34.4 
	93.7,34.4 "/>
<g>
	<path class="st2" d="M5.9,14.9h1.7v0.9c0.4-0.6,1-1,1.9-1c1.4,0,2.8,1.1,2.8,3.2v0c0,2.1-1.3,3.2-2.8,3.2c-0.9,0-1.5-0.4-1.9-0.9
		V23H5.9V14.9z M10.6,18L10.6,18c0-1-0.7-1.7-1.5-1.7c-0.8,0-1.5,0.7-1.5,1.7v0c0,1,0.7,1.7,1.5,1.7C10,19.7,10.6,19.1,10.6,18z"/>
	<path class="st2" d="M13.4,18.1L13.4,18.1c0-1.8,1.4-3.2,3.3-3.2c1.9,0,3.3,1.4,3.3,3.2v0c0,1.8-1.4,3.2-3.3,3.2
		C14.8,21.3,13.4,19.8,13.4,18.1z M18.3,18.1L18.3,18.1c0-0.9-0.7-1.7-1.6-1.7c-1,0-1.6,0.8-1.6,1.7v0c0,0.9,0.7,1.7,1.6,1.7
		C17.7,19.7,18.3,19,18.3,18.1z"/>
	<path class="st2" d="M20.5,14.9h1.8l1,3.7l1.2-3.8H26l1.2,3.8l1-3.8h1.7L28,21.2h-1.6l-1.2-3.8L24,21.2h-1.6L20.5,14.9z"/>
	<path class="st2" d="M30.4,18.1L30.4,18.1c0-1.8,1.3-3.2,3.1-3.2c2.1,0,3,1.6,3,3.3c0,0.1,0,0.3,0,0.5h-4.3
		c0.2,0.8,0.7,1.2,1.5,1.2c0.6,0,1-0.2,1.5-0.6l1,0.9c-0.6,0.7-1.4,1.2-2.5,1.2C31.7,21.3,30.4,20,30.4,18.1z M34.7,17.5
		c-0.1-0.8-0.6-1.3-1.3-1.3c-0.7,0-1.2,0.5-1.3,1.3H34.7z"/>
	<path class="st2" d="M37.7,14.9h1.7v1.2c0.4-0.9,0.9-1.4,2-1.4v1.8h-0.1c-1.2,0-1.9,0.7-1.9,2.2v2.3h-1.7V14.9z"/>
	<path class="st2" d="M42.1,18.1L42.1,18.1c0-1.8,1.3-3.2,3.1-3.2c2.1,0,3,1.6,3,3.3c0,0.1,0,0.3,0,0.5h-4.3
		c0.2,0.8,0.7,1.2,1.5,1.2c0.6,0,1-0.2,1.5-0.6l1,0.9c-0.6,0.7-1.4,1.2-2.5,1.2C43.4,21.3,42.1,20,42.1,18.1z M46.4,17.5
		c-0.1-0.8-0.6-1.3-1.3-1.3c-0.7,0-1.2,0.5-1.3,1.3H46.4z"/>
	<path class="st2" d="M49.2,18L49.2,18c0-2.1,1.3-3.2,2.8-3.2c0.9,0,1.5,0.4,1.9,0.9v-3h1.7v8.4h-1.7v-0.9c-0.4,0.6-1,1-1.9,1
		C50.5,21.2,49.2,20.1,49.2,18z M53.9,18L53.9,18c0-1-0.7-1.7-1.5-1.7c-0.8,0-1.5,0.7-1.5,1.7v0c0,1,0.7,1.7,1.5,1.7
		C53.2,19.7,53.9,19.1,53.9,18z"/>
	<path class="st2" d="M62.4,20.3v0.8h-1.7v-8.4h1.7v3.1c0.4-0.6,1-1,1.9-1c1.4,0,2.8,1.1,2.8,3.2v0c0,2.1-1.3,3.2-2.8,3.2
		C63.4,21.2,62.8,20.8,62.4,20.3z M65.4,18L65.4,18c0-1-0.7-1.7-1.5-1.7c-0.8,0-1.5,0.7-1.5,1.7v0c0,1,0.7,1.7,1.5,1.7
		C64.7,19.7,65.4,19.1,65.4,18z"/>
	<path class="st2" d="M68.1,22.6l0.6-1.3c0.2,0.1,0.5,0.2,0.7,0.2c0.3,0,0.5-0.1,0.6-0.4l-2.4-6.2h1.9l1.4,4.2l1.3-4.2H74l-2.4,6.3
		c-0.5,1.3-1,1.7-2,1.7C69,23,68.5,22.8,68.1,22.6z"/>
</g>
</svg>
